HIERARCHY
ROOT Hips
{
  OFFSET 40.9192 92.6879 18.85
  CHANNELS 6 Xposition Yposition Zposition Zrotation Xrotation Yrotation
  JOINT LeftUpLeg
  {
    OFFSET 8.64259 1.95398 -2.38835
    CHANNELS 3 Zrotation Xrotation Yrotation
    JOINT LeftLeg
    {
      OFFSET 43.7702 0 0
      CHANNELS 3 Zrotation Xrotation Yrotation
      JOINT LeftFoot
      {
        OFFSET 40.6238 0 0
        CHANNELS 3 Zrotation Xrotation Yrotation
        JOINT LeftToeBase
        {
          OFFSET 12.7242 0 0
          CHANNELS 3 Zrotation Xrotation Yrotation
          End Site
          {
            OFFSET 0 0 0
          }
        }
      }
    }
  }
  JOINT RightUpLeg
  {
    OFFSET -8.2249 1.95398 -2.59336
    CHANNELS 3 Zrotation Xrotation Yrotation
    JOINT RightLeg
    {
      OFFSET 43.5653 0 0
      CHANNELS 3 Zrotation Xrotation Yrotation
      JOINT RightFoot
      {
        OFFSET 40.6238 0 0
        CHANNELS 3 Zrotation Xrotation Yrotation
        JOINT RightToeBase
        {
          OFFSET 12.7242 0 0
          CHANNELS 3 Zrotation Xrotation Yrotation
          End Site
          {
            OFFSET 0 0 0
          }
        }
      }
    }
  }
  JOINT Spine
  {
    OFFSET 0.165834 0.87714 6.61349
    CHANNELS 3 Zrotation Xrotation Yrotation
    JOINT Spine1
    {
      OFFSET 7.38963 1.71661e-005 0
      CHANNELS 3 Zrotation Xrotation Yrotation
      JOINT Spine2
      {
        OFFSET 11.9445 1.14441e-005 0
        CHANNELS 3 Zrotation Xrotation Yrotation
        JOINT Spine3
        {
          OFFSET 14.7254 4.19617e-005 0
          CHANNELS 3 Zrotation Xrotation Yrotation
          JOINT Spine4
          {
            OFFSET 10.9679 0 0
            CHANNELS 3 Zrotation Xrotation Yrotation
            JOINT RightShoulder
            {
              OFFSET 2.46616 -1.6653 3.69651
              CHANNELS 3 Zrotation Xrotation Yrotation
              JOINT RightArm
              {
                OFFSET 13.0012 0 0
                CHANNELS 3 Zrotation Xrotation Yrotation
                JOINT RightForeArm
                {
                  OFFSET 28.7848 1.52588e-005 0
                  CHANNELS 3 Zrotation Xrotation Yrotation
                  JOINT RightHand
                  {
                    OFFSET 26.5688 1.52588e-005 0
                    CHANNELS 3 Zrotation Xrotation Yrotation
                    End Site
                    {
                      OFFSET 0 0 0
                    }
                  }
                }
              }
            }
            JOINT LeftShoulder
            {
              OFFSET 2.38034 -1.29275 -3.7523
              CHANNELS 3 Zrotation Xrotation Yrotation
              JOINT LeftArm
              {
                OFFSET 16.3182 6.10351e-005 0
                CHANNELS 3 Zrotation Xrotation Yrotation
                JOINT LeftForeArm
                {
                  OFFSET 27.0901 0 0
                  CHANNELS 3 Zrotation Xrotation Yrotation
                  JOINT LeftHand
                  {
                    OFFSET 24.5451 1.52588e-005 0
                    CHANNELS 3 Zrotation Xrotation Yrotation
                    End Site
                    {
                      OFFSET 0 0 0
                    }
                  }
                }
              }
            }
            JOINT Neck
            {
              OFFSET 5.0226 -0.0266342 0
              CHANNELS 3 Zrotation Xrotation Yrotation
              JOINT Head
              {
                OFFSET 6.69363 2.86102e-005 0
                CHANNELS 3 Zrotation Xrotation Yrotation
                End Site
                {
                  OFFSET 0 0 0
                }
              }
            }
          }
        }
      }
    }
  }
}
MOTION
Frames:	12
Frame Time:	0.0416667
35.6562 97.8769 -247.063 -88.2437 -85.8056 -88.2995 -171.114 3.54473 89.2927 -9.97495 15.1358 -4.30691 64.7016 4.84769 6.00723 28.3072 -0.549385 1.6035 172.194 3.78264 90.8517 -13.7908 -4.73866 2.61223 67.4278 -3.40657 -1.87202 28.0828 -0.687959 9.18967 0.0568686 7.15447 -89.8615 12.5647 0.17902 0.255929 0.893724 0.190117 0.247801 -21.6413 0.0938265 0.29791 -1.62861 0.0938297 0.2979 92.1416 -49.625 -97.6069 32.9039 -4.69272 10.4989 -33.3528 -41.9728 -54.461 0.790575 -0.826158 5.146 -97.0349 -49.7622 68.2414 -26.1082 14.9078 4.29014 3.08342 14.3515 -29.1352 8.70571 0.887537 5.68979 14.8018 2.59356 -0.747303 0.321406 2.80093 2.02607 
35.6293 97.7101 -247.13 -87.4673 -84.717 -87.4203 -171.006 4.30799 89.3515 -11.3987 14.57 -4.31805 65.2925 5.14584 6.39088 28.1135 -0.677897 1.34325 174.421 2.75492 91.3075 -12.1811 -13.1793 -0.253645 68.0505 -4.06379 -2.21648 27.7904 0.0231583 -0.998115 0.0708666 7.16882 -89.9081 12.5361 0.184576 0.162172 0.865126 0.191537 0.153877 -21.67 0.127298 0.210147 -1.65736 0.127304 0.210149 93.0605 -47.9092 -96.496 33.1009 -7.25091 7.93326 -15.696 -30.6768 -45.2569 -1.55549 -0.768359 7.77615 -97.1867 -49.3047 67.8677 -27.119 14.6019 4.17349 2.63606 13.6273 -28.6224 11.2115 1.06477 5.30612 15.2059 3.03491 -0.678278 -1.29024 3.18516 1.93439 
35.6501 97.7055 -247.119 -88.0335 -83.8502 -87.9074 -171.04 4.48764 89.3346 -12.0975 12.7518 -4.15002 65.8784 5.29768 5.47679 27.8039 -0.902229 1.11332 174.354 3.11463 91.3802 -12.7083 -12.7234 -0.0746877 67.9115 -3.99834 -2.18552 28.0661 -0.0655376 0.425512 0.0755372 7.17037 -89.9128 12.533 0.191673 0.152016 0.862023 0.198178 0.143425 -21.6731 0.137123 0.202594 -1.66048 0.137126 0.20259 92.6847 -48.09 -97.0559 31.5188 -8.04695 6.20734 -15.1751 -28.7366 -47.7695 -3.89746 -0.898291 7.05126 -97.3711 -49.5048 67.6625 -26.1275 14.4117 3.88632 3.0336 13.472 -29.4888 10.602 1.00388 5.23452 14.2134 3.27272 -1.17979 -0.532508 3.5714 2.60918 
35.6396 97.6391 -246.878 -87.6533 -83.6843 -87.6888 -171.03 4.56368 89.1654 -12.3385 14.3138 -4.36034 65.3242 5.60149 7.96318 28.6441 -0.152923 0.431131 174.512 3.41348 91.295 -13.623 -13.2527 -0.405322 68.3469 -4.16602 -2.25387 28.1418 0.0299633 -0.89134 0.0698978 7.17778 -89.8834 12.5181 0.194423 0.210388 0.847152 0.20349 0.201621 -21.6879 0.122197 0.259098 -1.67527 0.122199 0.259093 92.6384 -47.8522 -97.1742 31.0707 -8.64837 4.31874 -14.7856 -27.31 -49.4572 -4.24511 -0.881796 6.55066 -97.8161 -49.578 67.0347 -25.3069 13.8091 3.42764 3.35839 12.8033 -30.4245 12.0729 1.05634 4.66125 14.1657 3.18047 -0.978037 -0.684721 3.44008 2.89096 
35.6411 97.5532 -246.631 -88.631 -83.743 -88.8219 -171.326 4.54951 88.81 -13.0047 13.5861 -4.06223 65.7839 6.3516 7.87066 28.6658 -0.189692 0.956389 174.517 3.41083 91.1494 -14.281 -12.9792 -0.56746 69.1089 -4.4327 -2.36141 27.6483 -0.0285401 -0.379511 0.0714049 7.19044 -89.8445 12.4926 0.21592 0.285761 0.821665 0.22829 0.275977 -21.7133 0.120051 0.337442 -1.70065 0.120053 0.337437 92.5357 -47.9655 -97.3144 31.3567 -8.53538 3.01313 -15.0692 -26.5851 -49.9791 -5.87403 -1.00563 6.77171 -97.5759 -49.5475 67.3765 -24.7633 13.7875 2.68 3.76139 12.1842 -32.17 12.3128 1.11414 4.95841 13.7452 3.43562 -0.571134 -0.936785 3.58961 2.95584 
35.7877 97.4972 -246.169 -90.5533 -84.1665 -90.7232 -171.56 4.20839 88.6398 -13.5428 12.5054 -3.69265 66.7004 7.03098 6.63069 28.0006 -0.705704 0.782626 174.137 2.6583 90.8943 -13.8365 -13.1332 -0.338767 69.4132 -4.52493 -2.39387 27.4682 -0.0139582 -0.683053 0.0884483 7.23796 -89.8206 12.3975 0.260992 0.328364 0.7265 0.275188 0.316549 -21.8084 0.150235 0.391614 -1.79576 0.150246 0.391621 92.6178 -48.3461 -97.1116 31.0369 -8.70988 1.61371 -15.5705 -27.1618 -50.2596 -4.90416 -0.911434 6.16609 -97.2891 -49.4902 67.7784 -24.7089 13.4866 1.68565 4.47956 12.1175 -33.6764 13.1844 1.16053 4.77399 13.6289 3.43752 -0.417395 -1.63293 3.53723 2.90524 
36.0444 97.4265 -245.517 -88.4397 -84.4877 -88.4482 -171.291 4.11943 88.7366 -13.7182 13.1975 -3.9635 67.1104 7.70805 7.30498 28.5602 -0.277856 0.996338 174.21 2.42419 90.9057 -13.8859 -12.7993 -0.455384 69.8882 -4.71007 -2.47045 27.5289 -0.0262067 -0.479566 0.149367 7.2569 -89.8361 12.3596 0.374685 0.284695 0.68865 0.386858 0.267921 -21.8465 0.271802 0.384141 -1.83387 0.271807 0.384142 92.7128 -48.233 -96.9833 31.2869 -8.46005 1.17191 -15.8652 -27.4113 -50.0372 -4.82575 -0.904042 6.02755 -97.4765 -49.5949 67.5386 -24.8382 13.6919 0.975625 4.3461 11.2356 -34.6288 13.4435 1.06544 3.91318 13.322 3.49712 -0.503574 -1.52676 3.61907 2.95037 
36.3665 97.204 -244.752 -85.7967 -85.6548 -85.9499 -171.684 4.24071 88.2723 -14.5498 15.0592 -3.80837 67.3608 8.76168 9.23663 29.1752 0.175921 1.41191 174.464 2.52081 90.8752 -15.0013 -11.5384 -0.851289 71.0197 -5.12861 -2.63442 28.0922 0.0344392 -0.980383 0.111415 7.29153 -89.8307 12.2902 0.301764 0.303903 0.619289 0.314845 0.290318 -21.9157 0.196478 0.380547 -1.90306 0.196476 0.380535 93.0867 -47.7404 -96.4853 31.5194 -8.66331 1.43045 -16.0685 -27.5969 -50.3761 -4.0538 -0.847838 5.8364 -97.8077 -49.9281 67.1657 -24.8336 14.2614 0.626538 4.22364 11.0108 -35.0764 12.5911 0.923552 3.35057 13.2994 3.46807 -0.520877 -1.96601 3.58777 3.1125 
36.9799 96.9538 -243.943 -74.079 -85.9451 -73.6959 -171.965 5.6709 88.1421 -16.8084 15.6546 -3.51311 68.0414 9.23387 10.0707 28.9421 0.101732 0.262202 175.535 4.05662 91.5512 -17.6051 -9.88678 -1.51529 71.5921 -5.53769 -2.83909 30.2903 0.1456 -1.3666 0.11607 7.27686 -89.8796 12.3199 0.287843 0.207844 0.648931 0.296716 0.19496 -21.8862 0.212065 0.284743 -1.87359 0.212069 0.284742 91.7186 -48.0779 -98.5799 30.8739 -8.13492 3.08195 -14.9311 -27.0704 -49.3777 -4.97637 -0.845977 4.93638 -97.5687 -49.9914 67.5356 -25.0299 15.4498 -0.109136 4.408 12.545 -34.8838 13.701 1.22233 4.90817 12.8797 3.74207 -0.595575 -1.86554 3.87286 3.04016 
37.3764 96.3813 -243.107 -74.2717 -85.9679 -73.7414 -171.815 6.00133 88.0682 -19.4389 11.5065 -3.23997 72.6149 11.4523 4.75041 26.4438 -1.67227 -1.35915 176.989 8.22345 92.4803 -26.1232 -5.64427 -2.19771 71.7992 -5.92078 -3.0225 35.5912 0.314113 -2.42812 0.149908 7.36824 -89.8555 12.1379 0.366464 0.249261 0.466961 0.377081 0.232885 -22.0684 0.274607 0.347867 -2.05569 0.274611 0.347875 92.1748 -48.1366 -97.8495 31.3782 -7.54171 4.32606 -14.6971 -26.2927 -49.3044 -4.30231 -0.900781 7.10327 -97.221 -49.0052 67.7172 -25.2686 16.1316 -0.384395 3.93124 12.0813 -34.9308 12.9984 1.09158 4.37391 12.0771 3.82793 -1.52105 -2.10446 4.16538 3.64992 
37.752 96.0981 -242.101 -78.9592 -85.4324 -79.222 -172.047 4.94525 87.1544 -19.2851 13.4964 -3.61382 71.6822 11.7843 7.69576 28.4101 -0.205348 -0.840684 178.378 15.5993 92.0655 -39.2981 -5.6565 -3.34373 69.8539 -5.22559 -2.76588 41.1779 0.290481 -7.90383 0.0919852 7.52442 -89.7013 11.8234 0.323454 0.560656 0.152399 0.347819 0.545874 -22.3819 0.140003 0.631944 -2.36921 0.140002 0.631943 92.3812 -47.9538 -97.5605 32.0364 -7.5613 4.49535 -14.3264 -26.8863 -47.8899 -3.98081 -0.886591 7.26719 -97.3206 -48.6516 67.4508 -23.6782 16.3075 -0.893649 4.21474 12.0562 -35.8128 12.2614 0.980203 3.95652 11.0106 4.16405 -1.56229 -1.58569 4.49438 3.1173 
38.4004 96.0704 -240.222 -74.2494 -85.8149 -73.3264 -171.795 3.871 87.9384 -19.0649 12.1632 -3.32115 73.2334 12.5675 6.30791 28.1681 -0.189044 -2.73634 178.449 19.8045 93.3263 -40.1051 -5.87792 -2.53268 68.8198 -4.80564 -2.59969 41.3534 0.279561 -7.64447 -0.0495046 7.57958 -89.8534 11.7146 -0.0295894 0.294932 0.0436453 -0.0165847 0.295938 -22.4913 -0.116862 0.272394 -2.47869 -0.116858 0.272395 92.1324 -48.2829 -97.887 31.868 -6.97027 6.53054 -15.6652 -27.5052 -48.3622 -7.05691 -1.13312 7.31032 -97.9782 -48.6373 66.4729 -21.8144 16.3172 -2.0741 4.07728 11.6537 -36.141 10.3861 0.836686 3.90884 9.59603 4.63988 -1.59933 -1.95915 4.95847 3.59934 
